<?xml version="1.0" encoding="UTF-8"?>
<svg xmlns="http://www.w3.org/2000/svg" xmlns:xlink="http://www.w3.org/1999/xlink" width="32px" height="32px" viewBox="0 0 32 32" version="1.1">
<g id="surface1">
<path style=" stroke:none;fill-rule:nonzero;fill:rgb(0%,0%,0%);fill-opacity:1;" d="M 9.601562 8.019531 C 9.371094 8.019531 9.179688 7.945312 9.023438 7.808594 C 8.863281 7.664062 8.785156 7.480469 8.785156 7.253906 C 8.785156 7.023438 8.863281 6.84375 9.023438 6.707031 C 9.179688 6.570312 9.371094 6.503906 9.601562 6.503906 L 17.015625 6.503906 C 17.246094 6.503906 17.433594 6.574219 17.585938 6.714844 C 17.734375 6.855469 17.8125 7.039062 17.8125 7.269531 C 17.8125 7.496094 17.734375 7.675781 17.585938 7.8125 C 17.433594 7.949219 17.246094 8.019531 17.015625 8.019531 Z M 13.292969 16.667969 C 13.042969 16.667969 12.839844 16.585938 12.679688 16.429688 C 12.523438 16.273438 12.445312 16.078125 12.445312 15.851562 L 12.445312 7.261719 L 14.152344 7.289062 L 14.152344 15.855469 C 14.152344 16.082031 14.070312 16.277344 13.90625 16.433594 C 13.746094 16.589844 13.539062 16.667969 13.289062 16.667969 Z M 13.292969 16.667969 "/>
<path style="fill:none;stroke-width:52.5;stroke-linecap:round;stroke-linejoin:round;stroke:rgb(0%,0%,0%);stroke-opacity:1;stroke-miterlimit:4;" d="M 321.943359 242.446289 L 314.033203 148.842773 L 228.339844 148.842773 " transform="matrix(0.0296296,0,0,0.0296296,0,0)"/>
<path style="fill:none;stroke-width:52.5;stroke-linecap:round;stroke-linejoin:round;stroke:rgb(100%,11.372549%,80.784314%);stroke-opacity:1;stroke-miterlimit:4;" d="M 415.942383 148.842773 L 804.462891 148.842773 C 804.462891 148.842773 878.15918 146.865234 841.640625 243.764648 L 737.753906 555.952148 C 737.753906 555.952148 717.055664 620.419922 632.548828 620.419922 L 333.413086 620.419922 C 333.413086 620.419922 274.746094 620.419922 274.746094 678.955078 C 274.746094 678.955078 273.55957 734.0625 329.853516 734.0625 L 619.628906 734.0625 C 619.628906 734.0625 695.039062 726.28418 695.039062 809.472656 " transform="matrix(0.0296296,0,0,0.0296296,0,0)"/>
<path style="fill:none;stroke-width:52.5;stroke-linecap:round;stroke-linejoin:round;stroke:rgb(100%,11.372549%,80.784314%);stroke-opacity:1;stroke-miterlimit:4;" d="M 676.582031 873.94043 C 676.582031 905.581055 651.005859 931.157227 619.365234 931.157227 C 587.856445 931.157227 562.148438 905.581055 562.148438 873.94043 C 562.148438 842.431641 587.856445 816.855469 619.365234 816.855469 " transform="matrix(0.0296296,0,0,0.0296296,0,0)"/>
<path style="fill:none;stroke-width:52.5;stroke-linecap:round;stroke-linejoin:round;stroke:rgb(100%,11.372549%,80.784314%);stroke-opacity:1;stroke-miterlimit:4;" d="M 382.192383 873.94043 C 382.192383 905.581055 356.616211 931.157227 324.975586 931.157227 C 293.466797 931.157227 267.758789 905.581055 267.758789 873.94043 C 267.758789 842.431641 293.466797 816.855469 324.975586 816.855469 C 356.616211 816.855469 382.192383 842.431641 382.192383 873.94043 Z M 382.192383 873.94043 " transform="matrix(0.0296296,0,0,0.0296296,0,0)"/>
</g>
</svg>
