<?xml version="1.0" encoding="UTF-8"?>
<svg id="Layer_2" data-name="Layer 2" xmlns="http://www.w3.org/2000/svg" version="1.1" viewBox="0 0 1920 1080">
  <g>
    <g>
      <path d="M168.4,231.2c-7.7,0-14.2-2.4-19.5-7.1-5.3-4.8-8-11-8-18.7s2.7-13.8,8-18.4c5.3-4.6,11.8-6.9,19.5-6.9h250.3c7.7,0,14.1,2.4,19.2,7.1,5.1,4.8,7.7,11,7.7,18.7s-2.6,13.8-7.7,18.4c-5.1,4.6-11.5,6.9-19.2,6.9h-250.3ZM293.1,564.4c-8.4,0-15.3-2.7-20.6-8-5.3-5.3-8-11.8-8-19.5V207.1h57.6v329.9c0,7.7-2.7,14.2-8.2,19.5-5.5,5.3-12.4,8-20.9,8Z" fill="#fff" stroke-width="0"/>
      <path d="M573.6,276.2c8,0,14.5,2.7,19.5,8,4.9,5.3,7.4,11.8,7.4,19.5v144.9c0,37.7-10.5,67.2-31.6,88.7-21,21.4-50.8,32.1-89.2,32.1s-68.2-10.7-89.2-32.1c-21-21.4-31.6-51-31.6-88.7v-144.9c0-7.7,2.6-14.2,7.7-19.5,5.1-5.3,11.5-8,19.2-8s14.1,2.7,19.2,8c5.1,5.3,7.7,11.8,7.7,19.5v144.9c0,23.8,5.7,41.6,17,53.5,11.3,11.9,28,17.8,50,17.8s38.7-5.9,50.2-17.8c11.5-11.9,17.3-29.7,17.3-53.5v-144.9c0-7.7,2.5-14.2,7.4-19.5,4.9-5.3,11.3-8,18.9-8Z" fill="#fff" stroke-width="0"/>
      <path d="M778.3,271.3c25.6,0,48.4,6.4,68.3,19.2,19.9,12.8,35.8,30.3,47.5,52.4,11.7,22.1,17.6,47.9,17.6,77.1s-5.9,55.1-17.6,77.4c-11.7,22.3-27.4,39.9-47.2,52.7-19.8,12.8-42.1,19.2-67,19.2s-27-2.2-39.3-6.6c-12.3-4.4-23.2-10.2-32.9-17.3-9.7-7.1-17.6-14.7-23.6-22.8-6-8-9.8-15.6-11.3-22.5l14.3-7.1v153.7c0,7.7-2.6,14.2-7.7,19.5-5.1,5.3-11.5,8-19.2,8s-14.1-2.6-19.2-7.7c-5.1-5.1-7.7-11.7-7.7-19.8v-344.2c0-7.7,2.6-14.2,7.7-19.5,5.1-5.3,11.5-8,19.2-8s14.1,2.7,19.2,8c5.1,5.3,7.7,11.8,7.7,19.5v39l-8.8-4.4c1.5-7.3,5.1-14.8,11-22.5,5.8-7.7,13.3-14.8,22.2-21.4,9-6.6,19.2-11.9,30.7-15.9,11.5-4,23.5-6,36-6ZM772.3,320.7c-17.6,0-32.9,4.3-45.8,12.9-13,8.6-23.2,20.4-30.7,35.4-7.5,15-11.3,32-11.3,51.1s3.7,36.1,11.3,51.3c7.5,15.2,17.7,27.1,30.7,35.7,13,8.6,28.3,12.9,45.8,12.9s32.4-4.3,45.6-12.9c13.2-8.6,23.5-20.5,31-35.7,7.5-15.2,11.3-32.3,11.3-51.3s-3.8-36-11.3-51.1c-7.5-15-17.8-26.8-31-35.4-13.2-8.6-28.4-12.9-45.6-12.9Z" fill="#fff" stroke-width="0"/>
      <path d="M1085.8,271.3c25.6,0,48.4,6.4,68.3,19.2,19.9,12.8,35.8,30.3,47.5,52.4,11.7,22.1,17.6,47.9,17.6,77.1s-5.9,55.1-17.6,77.4c-11.7,22.3-27.4,39.9-47.2,52.7-19.8,12.8-42.1,19.2-67,19.2s-27-2.2-39.3-6.6c-12.3-4.4-23.2-10.2-32.9-17.3-9.7-7.1-17.6-14.7-23.6-22.8-6-8-9.8-15.6-11.3-22.5l14.3-7.1v153.7c0,7.7-2.6,14.2-7.7,19.5-5.1,5.3-11.5,8-19.2,8s-14.1-2.6-19.2-7.7c-5.1-5.1-7.7-11.7-7.7-19.8v-344.2c0-7.7,2.6-14.2,7.7-19.5,5.1-5.3,11.5-8,19.2-8s14.1,2.7,19.2,8c5.1,5.3,7.7,11.8,7.7,19.5v39l-8.8-4.4c1.5-7.3,5.1-14.8,11-22.5,5.9-7.7,13.3-14.8,22.2-21.4,9-6.6,19.2-11.9,30.7-15.9,11.5-4,23.5-6,36-6ZM1079.7,320.7c-17.6,0-32.9,4.3-45.8,12.9-13,8.6-23.2,20.4-30.7,35.4-7.5,15-11.3,32-11.3,51.1s3.7,36.1,11.3,51.3c7.5,15.2,17.7,27.1,30.7,35.7,13,8.6,28.3,12.9,45.8,12.9s32.4-4.3,45.6-12.9c13.2-8.6,23.5-20.5,31-35.7,7.5-15.2,11.3-32.3,11.3-51.3s-3.8-36-11.3-51.1c-7.5-15-17.8-26.8-31-35.4-13.2-8.6-28.4-12.9-45.6-12.9Z" fill="#fff" stroke-width="0"/>
      <path d="M1393.2,569.9c-30,0-56.2-6.3-78.5-18.9-22.3-12.6-39.6-30-51.9-52.2-12.3-22.1-18.4-47.3-18.4-75.5s6.5-60.2,19.5-82.9c13-22.7,29.9-40.2,50.8-52.4,20.9-12.3,43-18.4,66.4-18.4s34.4,3.5,50.5,10.4c16.1,7,30.4,16.7,42.8,29.4,12.4,12.6,22.4,27.4,29.9,44.5,7.5,17,11.3,35.6,11.3,55.7-.4,7.3-3.2,13.3-8.5,17.8-5.3,4.6-11.4,6.9-18.4,6.9h-214.1l-12.6-45.6h207l-10.4,9.3v-13.2c-.7-13.2-5-24.6-12.9-34.3-7.9-9.7-17.5-17.3-28.8-22.8-11.3-5.5-23.2-8.2-35.7-8.2s-21.6,1.7-31.8,5.2c-10.2,3.5-19.3,9.2-27.2,17-7.9,7.9-14.2,18.1-18.9,30.7-4.8,12.6-7.1,28.3-7.1,46.9s4.2,38.3,12.6,53.5c8.4,15.2,19.8,26.9,34,35.1,14.3,8.2,30.4,12.4,48.3,12.4s24.2-1.4,33.2-4.1c9-2.7,16.5-6.2,22.5-10.4,6-4.2,11.3-8.1,15.6-11.8,5.5-3.3,10.8-4.9,15.9-4.9s12.1,2.2,16.5,6.6c4.4,4.4,6.6,9.7,6.6,15.9s-4,14.6-12.1,20.9c-9.9,9.9-23.5,18.6-40.9,26.1-17.4,7.5-35.8,11.3-55.2,11.3Z" fill="#fff" stroke-width="0"/>
      <path d="M1571.6,564.4c-7.7,0-14.1-2.7-19.2-8-5.1-5.3-7.7-11.8-7.7-19.5v-233.3c0-7.7,2.6-14.2,7.7-19.5,5.1-5.3,11.5-8,19.2-8s14.1,2.7,19.2,8c5.1,5.3,7.7,11.8,7.7,19.5v63.1l-5.5-22.5c2.9-10.6,7.4-20.4,13.5-29.4,6-9,13.3-16.8,21.7-23.6,8.4-6.8,17.8-12.1,28.3-15.9s21.3-5.8,32.7-5.8,17.7,2.5,24.7,7.4c6.9,4.9,10.4,11.3,10.4,18.9s-2.5,16.5-7.4,20.9c-4.9,4.4-10.3,6.6-16.2,6.6s-11.3-1.1-16.2-3.3c-4.9-2.2-10.9-3.3-17.8-3.3s-16.1,2.1-24.2,6.3c-8.1,4.2-15.4,10.3-22,18.1-6.6,7.9-11.9,17.2-15.9,28-4,10.8-6,22.8-6,36v131.8c0,7.7-2.6,14.2-7.7,19.5-5.1,5.3-11.5,8-19.2,8Z" fill="#fff" stroke-width="0"/>
    </g>
    <polyline points="166.4 203.1 158.5 109.4 72.7 109.4" fill="none" stroke="#fff" stroke-linecap="round" stroke-linejoin="round" stroke-width="52.5"/>
  </g>
  <g>
    <path d="M1315.3,173.3h491.4s73.7-1.9,37.2,95l-103.9,312.2s-20.6,64.4-105.1,64.4h-402.2s-58.6,0-58.6,58.6c0,0-1.2,55.1,55.1,55.1h289.7s75.4-7.8,75.4,75.4" fill="none" stroke="#ff1dce" stroke-linecap="round" stroke-linejoin="round" stroke-width="52.5"/>
    <path d="M1575.8,898.4c0,31.6-25.6,57.2-57.2,57.2s-57.2-25.6-57.2-57.2,25.6-57.2,57.2-57.2" fill="none" stroke="#ff1dce" stroke-linecap="round" stroke-linejoin="round" stroke-width="52.5"/>
    <circle cx="1224.3" cy="898.4" r="57.2" fill="none" stroke="#ff1dce" stroke-linecap="round" stroke-linejoin="round" stroke-width="52.5"/>
  </g>
</svg>